<?xml version="1.0" encoding="UTF-8"?>
<svg viewBox="0 0 15 15" version="1.1" xmlns="http://www.w3.org/2000/svg" xmlns:xlink="http://www.w3.org/1999/xlink">
  <path d="M1.37 11.57C1.73 12.27 1.73 12.27 2.43 12.63L5.26 9.8C5.79 9.27 6.5 9.62 7.38 9.8C8.44 10.15 9.15 9.44 9.86 8.74L11.98 6.62C12.69 5.91 12.69 4.49 11.98 3.79L10.21 2.02C9.51 1.31 8.09 1.31 7.38 2.02L5.26 4.14C4.56 4.85 3.85 5.56 4.2 6.62C4.38 7.5 4.73 8.21 4.2 8.74ZM8.62 11.74A1 1 45 0 0 10.04 13.16A1 1 45 0 0 8.62 11.74Z"/>
</svg>